<svg width="354" height="108" viewBox="0 0 354 108" fill="none" xmlns="http://www.w3.org/2000/svg">
<path d="M84.9534 34.4383C90.7524 28.6393 97.7093 25.7397 105.827 25.7397C113.945 25.7397 121.097 28.6393 126.896 34.4383C132.695 40.2373 135.594 47.1941 135.594 55.3121C135.594 63.4301 132.695 70.5815 126.896 76.3805C121.097 82.1796 114.074 85.0791 105.827 85.0791C97.5806 85.0791 90.7524 82.1796 84.9534 76.3805C79.1544 70.5815 76.2549 63.562 76.2549 55.3121C76.2549 47.0622 79.1544 40.2373 84.9534 34.4383ZM93.3617 42.8894C89.8156 46.3332 88.0475 50.473 88.0475 55.3154C88.0475 60.1578 89.8189 64.3372 93.3617 67.8404C96.9044 71.3468 101.061 73.0984 105.827 73.0984C110.594 73.0984 114.941 71.3468 118.487 67.8404C122.03 64.3372 123.802 60.1611 123.802 55.3154C123.802 50.4697 122.03 46.3332 118.487 42.8894C114.941 39.4456 110.722 37.7237 105.827 37.7237C100.932 37.7237 96.9044 39.4456 93.3617 42.8894Z" fill="#1E69D6"/>
<path d="M192.235 32.7956C196.873 37.5655 199.192 42.652 199.192 48.0651V83.0472H185.275V52.6403C185.275 49.1767 183.784 45.8088 180.806 42.5365C177.824 39.2643 174.225 37.6281 170.006 37.6281C165.787 37.6281 162.185 39.2643 159.206 42.5365C156.224 45.8088 154.736 49.1767 154.736 52.6403V83.0472H140.819V27.5772H154.736V34.9233C161.822 28.7383 168.716 25.6475 175.419 25.6475C182.122 25.6475 187.594 28.0324 192.235 32.7989V32.7956Z" fill="#1E69D6"/>
<path d="M253.903 75.4208C250.808 78.7723 247.266 81.2199 243.271 82.7669C239.276 84.314 235.539 85.0199 232.062 84.8945C225.359 84.7659 219.079 81.8994 213.217 76.295C207.352 70.6906 204.423 63.7007 204.423 55.3255C204.423 46.9502 207.352 39.9604 213.217 34.356C219.079 28.7516 225.425 25.9478 232.254 25.9478C235.602 25.9478 239.177 26.5613 242.981 27.7851C246.781 29.0122 250.422 31.6841 253.903 35.8074V27.6894H267.82V78.7525C267.82 84.8813 264.95 91.2708 259.22 97.9242C253.484 104.574 245.851 107.903 236.317 107.903C224.205 107.903 213.897 100.299 205.393 85.0958H218.343C223.624 92.3099 229.229 95.9186 235.16 95.9186C240.183 95.9186 244.564 94.0813 248.301 90.4099C252.039 86.7385 253.906 82.4535 253.906 77.5584V75.4307L253.903 75.4208ZM223.578 68.4772C227.071 71.9474 231.251 73.6791 236.12 73.6791C240.988 73.6791 245.164 71.9474 248.658 68.4772C252.151 65.0103 253.899 60.7518 253.899 55.7081C253.899 50.6645 252.151 46.5973 248.658 43.1271C245.164 39.6602 240.985 37.9251 236.12 37.9251C231.254 37.9251 227.071 39.6602 223.578 43.1271C220.085 46.5973 218.34 50.7932 218.34 55.7081C218.34 60.6231 220.085 65.0103 223.578 68.4772Z" fill="#1E69D6"/>
<path d="M288.843 81.7941H274.926V4.48047H288.843V81.7941Z" fill="#1E69D6"/>
<path d="M306.615 60.4347C307.516 63.8092 309.482 66.745 312.51 69.2454C315.535 71.7458 319.434 72.996 324.203 72.996C327.941 72.996 331.094 72.102 333.674 70.3076C336.25 68.5131 337.989 66.8341 338.892 65.264H351.843C349.649 71.1916 346.205 75.9615 341.502 79.5669C336.798 83.1723 331.032 84.9799 324.203 84.9799C315.957 84.9799 308.934 82.0804 303.135 76.2814C297.336 70.4824 294.437 63.4629 294.437 55.213C294.437 46.9631 297.336 40.1382 303.135 34.3392C308.934 28.5401 315.954 25.6406 324.203 25.6406C331.032 25.6406 337.926 28.5401 344.886 34.3392C351.846 40.1382 354.742 48.8367 353.585 60.4314H306.618L306.615 60.4347ZM341.02 48.4508C339.988 45.0762 337.86 42.4274 334.64 40.5076C331.418 38.5878 327.938 37.6279 324.203 37.6279C320.209 37.6279 316.762 38.6769 313.862 40.7715C310.963 42.8661 308.805 45.4259 307.387 48.4508H341.017H341.02Z" fill="#1E69D6"/>
<path d="M63.1913 52.5145L21.4569 58.274C18.4188 58.6929 15.5391 57.0766 15.0245 54.6653L5.68277 10.9516C5.16819 8.54031 7.21335 6.24445 10.2481 5.82552L51.9826 0.0660923C55.0206 -0.352836 57.9003 1.2635 58.4149 3.67481L67.7567 47.3885C68.2713 49.7998 66.2261 52.0956 63.1913 52.5145Z" fill="#96BCE2"/>
<path d="M0 16.1206C0 10.4635 4.628 5.83545 10.2852 5.83545H23.3445C29.0017 5.83545 38.162 6.77557 43.7005 7.9202C43.7005 7.9202 47.3191 8.66898 56.1462 14.3394C64.9701 20.0097 69.387 30.0607 69.387 44.4923C69.387 58.9238 65.0691 68.9748 56.4365 74.6452C47.804 80.3156 43.7169 81.1336 43.7169 81.1336C38.1686 82.242 29.0017 83.1491 23.3445 83.1491H10.2852C4.628 83.1491 0 78.5211 0 72.8639V16.1239V16.1206Z" fill="#1E69D6"/>
<path d="M45.5149 36.5923H70.2052C72.478 36.5923 74.3253 38.4395 74.3253 40.7123V50.064C74.3253 52.3367 72.478 54.184 70.2052 54.184H45.5149C40.6626 54.184 36.7207 50.2421 36.7207 45.3898C36.7207 40.5375 40.6626 36.5956 45.5149 36.5956V36.5923Z" fill="#96BCE2"/>
<path d="M48.4865 50.7596C51.3321 50.7596 53.6389 48.4527 53.6389 45.6071C53.6389 42.7614 51.3321 40.4546 48.4865 40.4546C45.6408 40.4546 43.334 42.7614 43.334 45.6071C43.334 48.4527 45.6408 50.7596 48.4865 50.7596Z" fill="#1F6CC9"/>
</svg>
